# xmcd
#
# Track frame offsets:
# 150
# 18833
# 38457
# 49187
# 69180
# 84155
# 96410
# 114355
# 132342
# 149290
# 166041
# 180089
#
# Disc length: 2579 seconds
#
#
# Revision: 1
# Processed by: cddbd v1.5.2PL0 Copyright (c) Steve Scherf et al.
# Submitted via: FreeRIP 2.945 
#
DISCID=850a110c
DTITLE=Milionário and José Rico - Levando a Vida -  NA CHINA - vOL 16 - VOL 16 - Levando a Vida
DYEAR=1987
DGENRE=Sertanejo
TTITLE0=LEVANDO A VIDA
TTITLE1=GLÓRIA DA RIBALTA
TTITLE2=PROVA DO TEMPO
TTITLE3=NO ABOIO DE VAQUEIRO
TTITLE4=NOSSO PASSADO
TTITLE5=CORAÇÃO DE AÇO
TTITLE6=EXPLOSÃO DE AMOR
TTITLE7=PANTERA
TTITLE8=PORQUE TE AMO
TTITLE9=MENSAGEM DE AMOR
TTITLE10=MEU SENTIMENTO
TTITLE11=NO ABOIO DO VAQUEIRO
EXTD=
EXTT0=
EXTT1=
EXTT2=
EXTT3=
EXTT4=
EXTT5=
EXTT6=
EXTT7=
EXTT8=
EXTT9=
EXTT10=
EXTT11=
PLAYORDER=
